<svg width="96" height="96" viewBox="0 0 96 96" fill="none" xmlns="http://www.w3.org/2000/svg">
<path d="M26.25 69.75C26.25 73.8921 22.8921 77.25 18.75 77.25C10.4657 77.25 3.75 70.5343 3.75 62.25V54.75C3.75 46.4657 10.4657 39.75 18.75 39.75C22.8921 39.75 26.25 43.1079 26.25 47.25V69.75Z" stroke="#BD8600" stroke-width="2" stroke-miterlimit="10" stroke-linecap="round" stroke-linejoin="round"/>
<path d="M18.75 39.7502V26.25C18.75 13.8236 28.8236 3.75 41.25 3.75H56.25C68.6764 3.75 78.75 13.8236 78.75 26.25" stroke="#BD8600" stroke-width="2" stroke-miterlimit="10" stroke-linecap="round" stroke-linejoin="round"/>
<path d="M84.75 39.75C88.875 39.75 92.25 43.125 92.25 47.25V62.25C92.25 66.375 88.875 69.75 84.75 69.75H66.8567C60.0654 69.75 53.5522 72.4478 48.75 77.25V47.25C48.75 43.125 52.125 39.75 56.25 39.75H84.75Z" stroke="#BD8600" stroke-width="2" stroke-miterlimit="10" stroke-linecap="round" stroke-linejoin="round"/>
<path d="M48.75 92.25H30C23.7868 92.25 18.75 87.2132 18.75 81V77.25" stroke="#BD8600" stroke-width="2" stroke-miterlimit="10" stroke-linecap="round" stroke-linejoin="round"/>
<path d="M63.75 54.75H77.25" stroke="#BD8600" stroke-width="2" stroke-miterlimit="10" stroke-linecap="round" stroke-linejoin="round"/>
</svg>
