<svg width="64" height="64" viewBox="0 0 64 64" fill="none" xmlns="http://www.w3.org/2000/svg">
<path d="M32.956 61.485C32.6385 61.495 32.3199 61.5 32 61.5C15.4315 61.5 2.5 48.5685 2.5 32C2.5 15.4315 15.4315 2.5 32 2.5C48.5685 2.5 61.5 14.9315 61.5 31.5C61.5 31.8916 61.4925 32.2814 61.4776 32.6693" stroke="#BD8600" stroke-width="2" stroke-miterlimit="10" stroke-linecap="round" stroke-linejoin="round"/>
<path d="M49.5146 51.2801L47.2729 59.6495C47.1631 60.0592 46.9475 60.4466 46.626 60.7681C45.6498 61.7444 44.0668 61.7444 43.0905 60.7681C42.8068 60.4844 42.6055 60.1494 42.4866 59.793L35.4155 38.5797C35.1255 37.7097 35.3268 36.712 36.0194 36.0194C36.7119 35.3269 37.7098 35.1255 38.5798 35.4155L59.793 42.4866C60.1495 42.6055 60.4844 42.8067 60.7681 43.0905C61.7444 44.0667 61.7444 45.6497 60.7681 46.626C60.4466 46.9475 60.0592 47.1631 59.6495 47.2729L51.2801 49.5146C50.8704 49.6244 50.483 49.84 50.1615 50.1615C49.84 50.483 49.6244 50.8704 49.5146 51.2801Z" stroke="#BD8600" stroke-width="2" stroke-miterlimit="10" stroke-linecap="round" stroke-linejoin="round"/>
<path d="M50.1602 50.1611L60.7668 60.7678" stroke="#BD8600" stroke-width="2" stroke-miterlimit="10" stroke-linecap="round" stroke-linejoin="round"/>
<path d="M12 32H27.572" stroke="#BD8600" stroke-width="2" stroke-miterlimit="10" stroke-linecap="round" stroke-linejoin="round"/>
<path d="M37.9238 12.8955C39.5126 16.7175 40.9725 21.3358 41.6315 26.4045" stroke="#BD8600" stroke-width="2" stroke-miterlimit="10" stroke-linecap="round" stroke-linejoin="round"/>
<path d="M26.0765 51.1048C23.9195 45.9159 22 39.2591 22 32.0001C22 24.7411 23.9195 18.0844 26.0765 12.8955" stroke="#BD8600" stroke-width="2" stroke-miterlimit="10" stroke-linecap="round" stroke-linejoin="round"/>
</svg>
