<svg width="64" height="64" viewBox="0 0 64 64" fill="none" xmlns="http://www.w3.org/2000/svg">
<mask id="mask0_27_67" style="mask-type:luminance" maskUnits="userSpaceOnUse" x="0" y="0" width="64" height="64">
<path d="M0 7.62939e-06H64V64H0V7.62939e-06Z" fill="white"/>
</mask>
<g mask="url(#mask0_27_67)">
<path d="M62.125 41.7988C62.125 52.1887 53.7024 60.6113 43.3125 60.6113C32.9226 60.6113 24.5 52.1887 24.5 41.7988C24.5 31.409 32.9226 22.9863 43.3125 22.9863C53.7024 22.9863 62.125 31.409 62.125 41.7988Z" stroke="#BD8600" stroke-width="2" stroke-miterlimit="10"/>
<path d="M39.5 41.7988C39.5 52.1887 31.0774 60.6113 20.6875 60.6113C10.2976 60.6113 1.875 52.1887 1.875 41.7988C1.875 31.409 10.2976 22.9863 20.6875 22.9863C31.0774 22.9863 39.5 31.409 39.5 41.7988Z" stroke="#BD8600" stroke-width="2" stroke-miterlimit="10"/>
<path d="M50.8125 22.2022C50.8125 32.592 42.3899 41.0146 32 41.0146C21.6101 41.0146 13.1875 32.592 13.1875 22.2022C13.1875 11.8123 21.6101 3.38965 32 3.38965C42.3899 3.38965 50.8125 11.8123 50.8125 22.2022Z" stroke="#BD8600" stroke-width="2" stroke-miterlimit="10"/>
</g>
</svg>
