<svg width="38" height="38" viewBox="0 0 38 38" fill="none" xmlns="http://www.w3.org/2000/svg">
<path d="M16.625 7.52083C16.625 6.64638 17.3339 5.9375 18.2083 5.9375H31.6667C34.29 5.9375 36.4167 8.06415 36.4167 10.6875V19.3958C36.4167 20.2703 35.7078 20.9792 34.8333 20.9792H18.2083C17.3339 20.9792 16.625 20.2703 16.625 19.3958V7.52083Z" fill="#19914A"/>
<path d="M17.418 24.1458C17.418 23.2714 18.1269 22.5625 19.0013 22.5625H28.5013C29.3758 22.5625 30.0846 23.2714 30.0846 24.1458V29.2917C30.0846 30.1661 29.3758 30.875 28.5013 30.875H19.0013C18.1269 30.875 17.418 30.1661 17.418 29.2917V24.1458Z" fill="#99FE00"/>
<path fill-rule="evenodd" clip-rule="evenodd" d="M20.582 13.0625C22.3309 13.0625 23.7487 14.4803 23.7487 16.2292V24.9375C23.7487 26.6864 22.3309 28.1042 20.582 28.1042H4.7487C2.9998 28.1042 1.58203 26.6864 1.58203 24.9375V16.2292C1.58203 14.4803 2.9998 13.0625 4.7487 13.0625H20.582ZM5.34245 20.1875C5.01453 20.1875 4.7487 20.4533 4.7487 20.7812C4.7487 21.1092 5.01453 21.375 5.34245 21.375H11.2799C11.6079 21.375 11.8737 21.1092 11.8737 20.7812C11.8737 20.4533 11.6079 20.1875 11.2799 20.1875H5.34245ZM5.34245 17.4167C5.01453 17.4167 4.7487 17.6825 4.7487 18.0104C4.7487 18.3383 5.01453 18.6042 5.34245 18.6042H15.6341C15.962 18.6042 16.2279 18.3383 16.2279 18.0104C16.2279 17.6825 15.962 17.4167 15.6341 17.4167H5.34245Z" fill="#19CC61"/>
</svg>
