<svg width="38" height="38" viewBox="0 0 38 38" fill="none" xmlns="http://www.w3.org/2000/svg">
<path d="M1.98047 22.9583C1.98047 22.3025 2.51213 21.7708 3.16797 21.7708H26.918C27.5738 21.7708 28.1055 22.3025 28.1055 22.9583C28.1055 23.6142 27.5738 24.1458 26.918 24.1458H3.16797C2.51213 24.1458 1.98047 23.6142 1.98047 22.9583Z" fill="#99FE00"/>
<path fill-rule="evenodd" clip-rule="evenodd" d="M24.5404 7.125C25.4148 7.125 26.1237 7.83388 26.1237 8.70833V19C26.1237 19.8745 25.4148 20.5833 24.5404 20.5833H5.54036C4.66591 20.5833 3.95703 19.8745 3.95703 19V8.70833C3.95703 7.83388 4.66591 7.125 5.54036 7.125H24.5404ZM6.92578 15.0417C6.59786 15.0417 6.33203 15.3075 6.33203 15.6354C6.33203 15.9633 6.59786 16.2292 6.92578 16.2292H9.30078C9.6287 16.2292 9.89453 15.9633 9.89453 15.6354C9.89453 15.3075 9.6287 15.0417 9.30078 15.0417H6.92578ZM6.92578 12.6667C6.59786 12.6667 6.33203 12.9325 6.33203 13.2604C6.33203 13.5883 6.59786 13.8542 6.92578 13.8542H12.8633C13.1912 13.8542 13.457 13.5883 13.457 13.2604C13.457 12.9325 13.1912 12.6667 12.8633 12.6667H6.92578ZM6.92578 10.2917C6.59786 10.2917 6.33203 10.5575 6.33203 10.8854C6.33203 11.2133 6.59786 11.4792 6.92578 11.4792H17.2174C17.5454 11.4792 17.8112 11.2133 17.8112 10.8854C17.8112 10.5575 17.5454 10.2917 17.2174 10.2917H6.92578Z" fill="#19914A"/>
<path d="M33.1527 21.1984C33.1531 21.1701 33.1537 21.142 33.1537 21.1136C33.1537 18.416 31.0316 16.2292 28.4139 16.2292C26.158 16.2292 24.2704 17.8533 23.7916 20.0287C23.3451 19.7711 22.8308 19.6236 22.2827 19.6236C20.5725 19.6236 19.1862 21.0523 19.1862 22.8146C19.1862 22.8866 19.1894 22.9578 19.1939 23.0287C17.9243 23.5144 17.0195 24.7737 17.0195 26.251C17.0195 28.1489 18.5125 29.6875 20.3542 29.6875H32.247C34.5491 29.6875 36.4154 27.7643 36.4154 25.3919C36.4154 23.3401 35.0193 21.6245 33.1527 21.1984Z" fill="#19CC61"/>
</svg>
