<svg width="38" height="38" viewBox="0 0 38 38" fill="none" xmlns="http://www.w3.org/2000/svg">
<path fill-rule="evenodd" clip-rule="evenodd" d="M18.5034 11.4498C21.1479 8.8501 25.4567 8.8501 28.1012 11.4498C30.7457 14.0495 30.7457 18.2852 28.1012 20.8849L18.3117 30.5086C15.6671 33.1083 11.3584 33.1082 8.71386 30.5086C6.06934 27.9089 6.06934 23.6732 8.71386 21.0735L18.5034 11.4498ZM13.8554 23.3542C12.3252 23.3542 11.0846 24.5947 11.0846 26.125C11.0846 27.6553 12.3252 28.8959 13.8554 28.8959C15.3857 28.8958 16.6263 27.6553 16.6263 26.125C16.6263 24.5947 15.3857 23.3542 13.8554 23.3542Z" fill="#99FE00"/>
<path fill-rule="evenodd" clip-rule="evenodd" d="M13.6576 5.54166C17.4755 5.54166 20.5846 8.53163 20.5846 12.2032V25.7968C20.5846 29.4718 17.4755 32.4583 13.6576 32.4583C9.83964 32.4583 6.73047 29.4683 6.73047 25.7968V12.2032C6.73047 8.52821 9.83964 5.54166 13.6576 5.54166ZM13.8555 23.3542C12.3252 23.3542 11.0846 24.5947 11.0846 26.125C11.0846 27.6553 12.3252 28.8958 13.8555 28.8958C15.3858 28.8958 16.6263 27.6553 16.6263 26.125C16.6263 24.5947 15.3858 23.3542 13.8555 23.3542Z" fill="#19914A"/>
<path fill-rule="evenodd" clip-rule="evenodd" d="M28.5 19.7917C31.9978 19.7917 34.8333 22.6272 34.8333 26.125C34.8333 29.6228 31.9978 32.4583 28.5 32.4583H9.89583C6.39803 32.4583 3.5625 29.6228 3.5625 26.125C3.5625 22.6272 6.39803 19.7917 9.89583 19.7917H28.5ZM13.8542 23.3542C12.3239 23.3542 11.0833 24.5947 11.0833 26.125C11.0833 27.6553 12.3239 28.8958 13.8542 28.8958C15.3845 28.8958 16.625 27.6553 16.625 26.125C16.625 24.5947 15.3845 23.3542 13.8542 23.3542Z" fill="#19CC61"/>
</svg>
