<svg width="96" height="96" viewBox="0 0 96 96" fill="none" xmlns="http://www.w3.org/2000/svg">
<path d="M4.00001 60.8445C4.00001 51.7873 4.00001 38.7509 4.00001 29.6937C4.00001 29.6937 5.69236 29.6937 8.42126 29.6937C14.8733 29.6748 21.3254 29.6937 27.7774 29.6937C30.866 29.6937 32.4737 28.2726 32.4737 25.5062C32.4737 19.7838 32.5583 9.7225 32.4525 4.00015L37.3603 4C44.0451 4.13264 50.751 4.0379 57.4569 4.0379C60.1224 4.0379 61.8147 4.03769 61.8147 4.03769C61.8358 9.85477 61.8147 19.5564 61.8147 25.3735C61.8147 28.2726 63.3801 29.6748 66.5956 29.6748C73.4707 29.6748 80.3459 29.6748 87.221 29.6748C89.273 29.6748 92 29.6748 92 29.6748C91.9365 30.0916 89.9922 33.2181 89.7595 33.597C82.7998 45.0796 75.8188 56.5622 68.8591 68.0448C67.6956 69.9775 67.2239 70.9249 67.2239 70.9249C59.5449 70.9249 43.0478 70.96 35.3688 70.96C35.3688 70.96 36.4507 69.1627 37.7834 66.9648C44.2566 56.278 50.6664 45.5723 57.2665 34.9613C59.0858 32.0243 57.5627 30.2243 54.1569 30.3379C48.8471 30.5274 43.5162 30.3948 38.1853 30.3948C34.843 30.3948 33.2564 31.8348 33.2564 34.8097C33.2564 52.4694 33.2564 70.1101 33.2775 87.7698C33.2775 89.3425 33.2775 91.9976 33.2775 91.9976C33.2775 91.9976 29.8717 91.9763 29.1736 91.9763C22.1504 92.0142 11.0232 91.9953 4 91.9953C4 91.9953 4.00001 90.4794 4.00001 88.3004C4.00001 79.1484 4.00001 69.9965 4.00001 60.8445Z" fill="white"/>
</svg>
