<svg width="48" height="48" viewBox="0 0 48 48" fill="none" xmlns="http://www.w3.org/2000/svg">
<path d="M2.00001 30.4222C2.00001 25.8936 2.00001 19.3755 2.00001 14.8469C2.00001 14.8469 2.84618 14.8469 4.21063 14.8469C7.43666 14.8374 10.6627 14.8469 13.8887 14.8469C15.433 14.8469 16.2368 14.1363 16.2368 12.7531C16.2368 9.89191 16.2792 4.86125 16.2263 2.00008L18.6802 2C22.0225 2.06632 25.3755 2.01895 28.7285 2.01895C30.0612 2.01895 30.9073 2.01884 30.9073 2.01884C30.9179 4.92739 30.9073 9.77822 30.9073 12.6868C30.9073 14.1363 31.6901 14.8374 33.2978 14.8374C36.7354 14.8374 40.1729 14.8374 43.6105 14.8374C44.6365 14.8374 46 14.8374 46 14.8374C45.9683 15.0458 44.9961 16.609 44.8798 16.7985C41.3999 22.5398 37.9094 28.2811 34.4295 34.0224C33.8478 34.9888 33.612 35.4625 33.612 35.4625C29.7724 35.4625 21.5239 35.48 17.6844 35.48C17.6844 35.48 18.2253 34.5814 18.8917 33.4824C22.1283 28.139 25.3332 22.7861 28.6333 17.4806C29.5429 16.0122 28.7813 15.1121 27.0784 15.169C24.4236 15.2637 21.7581 15.1974 19.0927 15.1974C17.4215 15.1974 16.6282 15.9174 16.6282 17.4049C16.6282 26.2347 16.6282 35.0551 16.6388 43.8849C16.6388 44.6713 16.6388 45.9988 16.6388 45.9988C16.6388 45.9988 14.9359 45.9882 14.5868 45.9882C11.0752 46.0071 5.51161 45.9976 2 45.9976C2 45.9976 2.00001 45.2397 2.00001 44.1502C2.00001 39.5742 2.00001 34.9982 2.00001 30.4222Z" fill="white"/>
</svg>
