<svg width="48" height="48" viewBox="0 0 48 48" fill="none" xmlns="http://www.w3.org/2000/svg">
<path fill-rule="evenodd" clip-rule="evenodd" d="M27.9609 12.5424L30.338 14.9155L30.3341 14.9193L15.0969 30.1496C13.4304 31.8169 11.207 32.7363 8.8416 32.7363C6.47616 32.7363 4.2528 31.8169 2.58624 30.1496C-0.862081 26.7006 -0.862081 21.0922 2.58624 17.6434L15.7344 4.49994L18.1113 6.87299L4.9632 20.0164C2.82432 22.1529 2.82432 25.6324 4.9632 27.7727C7.10208 29.9131 10.585 29.9131 12.7238 27.7727L27.9609 12.5424ZM25.2116 9.84886L10.0436 25.1021L7.68199 22.7251L22.85 7.47199C24.5088 5.80093 26.7207 4.88147 29.0747 4.88147C31.4286 4.88147 33.6404 5.80093 35.2992 7.47199L36.482 8.65853L34.1166 11.0354L32.9339 9.84886C31.9047 8.81113 30.5376 8.24266 29.0747 8.24266C27.6116 8.24266 26.2407 8.81113 25.2116 9.84886ZM45.4137 17.7692C43.7472 16.102 41.5238 15.1825 39.1584 15.1825C36.7929 15.1825 34.5696 16.102 32.903 17.7692L17.6658 32.9995L20.039 35.3726L35.2761 20.1424C37.415 18.0019 40.898 18.0058 43.0368 20.1424C44.0697 21.1762 44.642 22.5535 44.642 24.0223C44.642 25.4912 44.0736 26.8685 43.0368 27.9024L29.8886 41.0458L32.2656 43.4189L45.4137 30.2755C48.8621 26.8265 48.8621 21.2182 45.4137 17.7692ZM37.9584 22.8149L37.9602 22.813H37.9565L37.9584 22.8149ZM37.9584 22.8149L22.7922 38.0661C20.661 40.2065 17.1974 40.2102 15.0662 38.0661L13.8834 36.8796L11.518 39.2565L12.7008 40.443C14.3597 42.114 16.5714 43.0336 18.9254 43.0336C21.2793 43.0336 23.4912 42.114 25.1501 40.443L40.3181 25.1898L37.9584 22.8149Z" fill="#BD8600"/>
</svg>
