<svg width="48" height="48" viewBox="0 0 48 48" fill="none" xmlns="http://www.w3.org/2000/svg">
<g clip-path="url(#clip0_27_829)">
<path d="M24.0105 0C37.2403 0 48 10.7178 48 23.9058C48 30.271 45.4714 36.3755 40.9706 40.8764C36.4697 45.3772 30.3652 47.9058 24 47.9058C17.6348 47.9058 11.5303 45.3772 7.02944 40.8764C2.52856 36.3755 0 30.271 0 23.9058C0 10.7178 10.7597 0 24.0105 0ZM24.3873 25.7898L17.898 44.5251C22.2485 45.8007 26.889 45.6836 31.1696 44.1901C31.1113 44.0902 31.0622 43.9851 31.0231 43.8761L24.3873 25.7898ZM4.29132 15.1557C2.01123 20.2605 1.81156 26.0531 3.73474 31.3028C5.65792 36.5525 9.55236 40.8453 14.5905 43.2691L4.29132 15.1557ZM42.9341 13.5857C43.0388 14.2765 43.0807 15.0092 43.0807 15.8046C43.0807 17.9817 42.662 20.4309 41.4479 23.5081L34.8539 42.4736C39.7035 39.6646 43.2631 35.0713 44.7728 29.674C46.2824 24.2767 45.6226 18.5032 42.9341 13.5857ZM24.0105 2.44919C16.4745 2.44919 9.83864 6.30092 5.96598 12.1413C8.34884 12.2206 10.7343 12.1297 13.1042 11.8692C14.2765 11.8064 14.4021 13.502 13.2508 13.6485C13.2508 13.6485 12.0785 13.7741 10.7806 13.8578L18.6306 37.1147L23.3615 23.0057L20.0122 13.816C18.8399 13.7532 17.7305 13.6066 17.7305 13.6066C16.5792 13.5438 16.7048 11.7854 17.877 11.8482C17.877 11.8482 21.4357 12.1204 23.5499 12.1204C25.8107 12.1413 29.3066 11.8692 29.3066 11.8692C30.4579 11.8064 30.6044 13.502 29.4531 13.6485C29.4531 13.6485 28.2809 13.7741 26.983 13.8578L34.7702 36.9682L36.9263 29.788C37.8925 27.5903 38.4528 25.2357 38.58 22.8382C38.5492 20.7365 37.9331 18.685 36.8007 16.9141C35.6912 15.1348 34.6655 13.6485 34.6655 11.8901C34.6655 9.90144 36.1727 8.05931 38.3079 8.05931H38.58C34.6002 4.42378 29.4008 2.41427 24.0105 2.42826V2.44919Z" fill="#BD8600"/>
</g>
<defs>
<clipPath id="clip0_27_829">
<rect width="48" height="48" fill="white"/>
</clipPath>
</defs>
</svg>
