<svg width="96" height="96" viewBox="0 0 96 96" fill="none" xmlns="http://www.w3.org/2000/svg">
<mask id="mask0_27_566" style="mask-type:luminance" maskUnits="userSpaceOnUse" x="0" y="0" width="96" height="96">
<path d="M0 7.62939e-06H96V96H0V7.62939e-06Z" fill="white"/>
</mask>
<g mask="url(#mask0_27_566)">
<path d="M17.0625 20.5791C17.0625 10.7573 25.0532 2.7666 34.875 2.7666C44.6968 2.7666 52.6875 10.7573 52.6875 20.5791" stroke="#BD8600" stroke-width="2" stroke-miterlimit="10" stroke-linecap="round" stroke-linejoin="round"/>
<path d="M28.3125 52.7862V63.0635" stroke="#BD8600" stroke-width="2" stroke-miterlimit="10" stroke-linecap="round" stroke-linejoin="round"/>
<path d="M19.3633 85.8278L27.5171 93.1875H70.7681C70.7681 93.1875 80.8125 86.8125 80.8125 72.7973V53.9543V48.7046V48.5175C80.8125 44.8931 77.8746 41.955 74.25 41.955C70.6256 41.955 67.6875 44.8931 67.6875 48.5175V44.7671C67.6875 41.1429 64.7496 38.2046 61.125 38.2046C57.5006 38.2046 54.5625 41.1429 54.5625 44.7671V42.8921C54.5625 39.2678 51.6246 36.3296 48 36.3296C44.3756 36.3296 41.4375 39.2678 41.4375 42.8921V20.5793C41.4375 16.9549 38.4996 14.0168 34.875 14.0168C31.2506 14.0168 28.3125 16.9549 28.3125 20.5793V52.7859C28.3125 49.1616 25.3746 46.2234 21.75 46.2234H15.1875V76.4338C15.1875 79.5276 17.0666 83.7549 19.3633 85.8278Z" stroke="#BD8600" stroke-width="2" stroke-miterlimit="10" stroke-linecap="round" stroke-linejoin="round"/>
<path d="M54.5625 44.7671V48" stroke="#BD8600" stroke-width="2" stroke-miterlimit="10" stroke-linecap="round" stroke-linejoin="round"/>
<path d="M41.4375 42.8921V48" stroke="#BD8600" stroke-width="2" stroke-miterlimit="10" stroke-linecap="round" stroke-linejoin="round"/>
</g>
</svg>
