<svg width="166" height="34" viewBox="0 0 166 34" fill="none" xmlns="http://www.w3.org/2000/svg">
<path d="M1.48243 21.5259C1.48243 18.3316 1.48243 13.7341 1.48243 10.5399C1.48243 10.5399 2.06206 10.5399 2.99672 10.5399C5.20656 10.5332 7.41641 10.5399 9.62626 10.5399C10.6841 10.5399 11.2347 10.0387 11.2347 9.06309C11.2347 7.04499 11.2637 3.49667 11.2275 1.47857L12.9084 1.47852C15.198 1.52529 17.4948 1.49188 19.7916 1.49188C20.7045 1.49188 21.2841 1.49181 21.2841 1.49181C21.2914 3.54332 21.2841 6.9648 21.2841 9.01631C21.2841 10.0387 21.8203 10.5332 22.9216 10.5332C25.2763 10.5332 27.6311 10.5332 29.9858 10.5332C30.6886 10.5332 31.6227 10.5332 31.6227 10.5332C31.6009 10.6802 30.935 11.7828 30.8553 11.9165C28.4716 15.9661 26.0806 20.0156 23.6968 24.0652C23.2983 24.7468 23.1368 25.0809 23.1368 25.0809C20.5067 25.0809 14.8564 25.0933 12.2263 25.0933C12.2263 25.0933 12.5969 24.4594 13.0533 23.6843C15.2704 19.9154 17.4658 16.1398 19.7264 12.3976C20.3495 11.3618 19.8278 10.727 18.6613 10.7671C16.8427 10.8339 15.0168 10.7872 13.191 10.7872C12.0462 10.7872 11.5028 11.295 11.5028 12.3442C11.5028 18.5722 11.5028 24.7936 11.5101 31.0216C11.5101 31.5762 11.5101 32.5126 11.5101 32.5126C11.5101 32.5126 10.3436 32.5051 10.1045 32.5051C7.69898 32.5185 3.8879 32.5118 1.48242 32.5118C1.48242 32.5118 1.48243 31.9772 1.48243 31.2087C1.48243 27.9811 1.48243 24.7535 1.48243 21.5259Z" fill="#BD8600"/>
<path d="M73.0599 32.5216H66.5393V10.5664H73.0599V32.5216Z" fill="#36432A"/>
<path d="M110.971 16.6823L115.062 10.5664H122.268L114.841 21.5436L122.268 32.5216H115.062L110.971 26.4057L106.88 32.5216H99.6422L107.069 21.5436L99.6422 10.5664H106.88L110.971 16.6823Z" fill="#36432A"/>
<path fill-rule="evenodd" clip-rule="evenodd" d="M56.0514 10.5664C66.9374 10.598 67.1261 26.6134 56.0514 26.457H44.5923V32.5057H38.0479V10.5664H56.0514ZM44.5923 20.9409H56.0514C58.2849 20.9405 58.3164 16.0828 55.9884 16.0825H44.5923V20.9409Z" fill="#36432A"/>
<path d="M97.3893 17.0569H93.922C91.5318 17.0569 89.5936 18.9865 89.5936 21.3668V24.7874H86.1574C83.7673 24.7876 81.8304 26.7179 81.8304 29.0981V32.5057H75.3135V26.016H78.7482C81.1382 26.0159 83.0765 24.0855 83.0766 21.7053V18.2984H86.5439C88.9341 18.2984 90.8723 16.3681 90.8723 13.9878V10.5664H97.3893V17.0569Z" fill="#36432A"/>
<path d="M97.3907 32.5057H90.8731V26.2657C90.8731 26.1991 90.9003 26.1352 90.9476 26.0881C90.9949 26.0411 91.0588 26.0146 91.1256 26.0145H97.3907V32.5057Z" fill="#36432A"/>
<path d="M141.821 16.0825H131.064V18.7784H138.231V24.2945H131.113V26.9897H142.199V32.5057H124.563V10.5664H141.821V16.0825Z" fill="#36432A"/>
<path d="M157.968 21.5364V10.5664H164.518V32.5057H157.968L150.663 21.5364V32.5057H144.114V10.5664H150.663L157.968 21.5364Z" fill="#36432A"/>
<path d="M81.8297 16.8057C81.8295 16.8722 81.803 16.9363 81.7559 16.9833C81.7087 17.0302 81.6445 17.0567 81.5778 17.0569H75.3127V10.5664H81.8297V16.8057Z" fill="#36432A"/>
</svg>
