<svg width="96" height="96" viewBox="0 0 96 96" fill="none" xmlns="http://www.w3.org/2000/svg">
<mask id="mask0_27_420" style="mask-type:luminance" maskUnits="userSpaceOnUse" x="0" y="0" width="96" height="96">
<path d="M0 7.62939e-06H96V96H0V7.62939e-06Z" fill="white"/>
</mask>
<g mask="url(#mask0_27_420)">
<path d="M74.2566 60.0861C84.7125 60.0853 93.1882 51.6085 93.1875 41.1525C93.1867 30.6964 84.7099 22.2208 74.2537 22.2216C72.7172 22.2216 71.2249 22.4095 69.7942 22.755C65.4969 15.1607 57.3463 10.0347 47.9977 10.0354C38.6492 10.036 30.4993 15.1633 26.2031 22.7582C24.7725 22.4127 23.2802 22.2252 21.7434 22.2252C11.2875 22.2259 2.81175 30.7028 2.8125 41.1589C2.81325 51.6148 11.2901 60.0904 21.7461 60.0898L74.2566 60.0861Z" stroke="#BD8600" stroke-width="2" stroke-miterlimit="10"/>
<path d="M48 60.0896V75.6724" stroke="#BD8600" stroke-width="2" stroke-miterlimit="10"/>
<path d="M54.175 79.7895C54.175 83.2 51.4102 85.9648 47.9995 85.9648C44.5891 85.9648 41.8242 83.2 41.8242 79.7895C41.8242 76.3789 44.5891 73.614 47.9995 73.614C51.4102 73.614 54.175 76.3789 54.175 79.7895Z" stroke="#BD8600" stroke-width="2" stroke-miterlimit="10"/>
<path d="M93.1868 79.7895C93.1868 83.2 90.4219 85.9648 87.0113 85.9648C83.6008 85.9648 80.8359 83.2 80.8359 79.7895C80.8359 76.3789 83.6008 73.614 87.0113 73.614C90.4219 73.614 93.1868 76.3789 93.1868 79.7895Z" stroke="#BD8600" stroke-width="2" stroke-miterlimit="10"/>
<path d="M15.1633 79.7895C15.1633 83.2 12.3984 85.9648 8.98781 85.9648C5.57738 85.9648 2.8125 83.2 2.8125 79.7895C2.8125 76.3789 5.57738 73.614 8.98781 73.614C12.3984 73.614 15.1633 76.3789 15.1633 79.7895Z" stroke="#BD8600" stroke-width="2" stroke-miterlimit="10"/>
<path d="M41.8337 79.7896H15.1641" stroke="#BD8600" stroke-width="2" stroke-miterlimit="10"/>
<path d="M54.1836 79.7896H80.8365" stroke="#BD8600" stroke-width="2" stroke-miterlimit="10"/>
</g>
</svg>
