<svg width="96" height="96" viewBox="0 0 96 96" fill="none" xmlns="http://www.w3.org/2000/svg">
<g clip-path="url(#clip0_27_586)">
<mask id="mask0_27_586" style="mask-type:luminance" maskUnits="userSpaceOnUse" x="0" y="0" width="96" height="96">
<path d="M96 0H0V96H96V0Z" fill="white"/>
</mask>
<g mask="url(#mask0_27_586)">
<mask id="mask1_27_586" style="mask-type:luminance" maskUnits="userSpaceOnUse" x="0" y="0" width="96" height="96">
<path d="M0 7.62939e-06H96V96H0V7.62939e-06Z" fill="white"/>
</mask>
<g mask="url(#mask1_27_586)">
<path d="M63.5625 57.9375L47.8125 27.9375L32.0625 57.9375L10.6875 35.0625L17.8125 82.3125H77.8125L84.9375 35.0625L63.5625 57.9375Z" stroke="#BD8600" stroke-width="2" stroke-miterlimit="10" stroke-linecap="round" stroke-linejoin="round"/>
<path d="M54.9375 20.8125C54.9375 24.7476 51.7476 27.9375 47.8125 27.9375C43.8774 27.9375 40.6875 24.7476 40.6875 20.8125C40.6875 16.8774 43.8774 13.6875 47.8125 13.6875C51.7476 13.6875 54.9375 16.8774 54.9375 20.8125Z" stroke="#BD8600" stroke-width="2" stroke-miterlimit="10" stroke-linecap="round" stroke-linejoin="round"/>
<path d="M17.8125 27.9375C17.8125 31.8726 14.6226 35.0625 10.6875 35.0625C6.75262 35.0625 3.5625 31.8726 3.5625 27.9375C3.5625 24.0024 6.75262 20.8125 10.6875 20.8125C14.6226 20.8125 17.8125 24.0024 17.8125 27.9375Z" stroke="#BD8600" stroke-width="2" stroke-miterlimit="10" stroke-linecap="round" stroke-linejoin="round"/>
<path d="M77.8125 27.9375C77.8125 31.8726 81.0024 35.0625 84.9375 35.0625C88.8724 35.0625 92.0625 31.8726 92.0625 27.9375C92.0625 24.0024 88.8724 20.8125 84.9375 20.8125C81.0024 20.8125 77.8125 24.0024 77.8125 27.9375Z" stroke="#BD8600" stroke-width="2" stroke-miterlimit="10" stroke-linecap="round" stroke-linejoin="round"/>
</g>
</g>
</g>
<defs>
<clipPath id="clip0_27_586">
<rect width="96" height="96" fill="white"/>
</clipPath>
</defs>
</svg>
