<svg width="96" height="96" viewBox="0 0 96 96" fill="none" xmlns="http://www.w3.org/2000/svg">
<path d="M62.0252 11.1889L48 4.58887L1.875 26.2946L48 48.0004L94.125 26.2946L76.8908 18.1843" stroke="#BD8600" stroke-width="2" stroke-miterlimit="10" stroke-linecap="round" stroke-linejoin="round"/>
<path d="M94.1244 47.9998L48.0006 69.7063L1.875 47.9998L24.9379 37.1484L48.0006 47.9998L71.0634 37.1484L94.1244 47.9998Z" stroke="#BD8600" stroke-width="2" stroke-miterlimit="10" stroke-linecap="round" stroke-linejoin="round"/>
<path d="M94.1244 69.7068L48.0006 91.4116L1.875 69.7068L24.9379 58.8535L48.0006 69.7068L71.0634 58.8535L94.1244 69.7068Z" stroke="#BD8600" stroke-width="2" stroke-miterlimit="10" stroke-linecap="round" stroke-linejoin="round"/>
<path d="M36.0469 64.0775L82.623 42.5996" stroke="#BD8600" stroke-width="2" stroke-miterlimit="10" stroke-linecap="round" stroke-linejoin="round"/>
<path d="M24.9375 58.8531L47.9994 48" stroke="#BD8600" stroke-width="2" stroke-miterlimit="10" stroke-linecap="round" stroke-linejoin="round"/>
<path d="M13.2539 53.355L36.4062 42.6787" stroke="#BD8600" stroke-width="2" stroke-miterlimit="10" stroke-linecap="round" stroke-linejoin="round"/>
<path d="M22.2754 68.6221L26.1186 70.5871" stroke="#BD8600" stroke-width="2" stroke-miterlimit="10" stroke-linecap="round" stroke-linejoin="round"/>
<path d="M34.1738 74.375L38.0172 76.34" stroke="#BD8600" stroke-width="2" stroke-miterlimit="10" stroke-linecap="round" stroke-linejoin="round"/>
<path d="M46.2598 80.127L50.103 82.0921" stroke="#BD8600" stroke-width="2" stroke-miterlimit="10" stroke-linecap="round" stroke-linejoin="round"/>
<path d="M57.4141 74.5615L61.2572 76.5267" stroke="#BD8600" stroke-width="2" stroke-miterlimit="10" stroke-linecap="round" stroke-linejoin="round"/>
<path d="M68.5684 68.9961L72.4115 70.9613" stroke="#BD8600" stroke-width="2" stroke-miterlimit="10" stroke-linecap="round" stroke-linejoin="round"/>
</svg>
