<svg width="1504" height="211" viewBox="0 0 1504 211" fill="none" xmlns="http://www.w3.org/2000/svg">
<path d="M13.4288 194.996C13.4288 166.061 13.4288 124.412 13.4288 95.4767C13.4288 95.4767 18.6804 95.4767 27.1486 95.4767C47.1703 95.4161 67.1921 95.4767 87.2138 95.4767C96.798 95.4767 101.787 90.9365 101.787 82.0984C101.787 63.8168 102.05 31.6732 101.721 13.3916L116.951 13.3911C137.695 13.8149 158.504 13.5122 179.314 13.5122C187.585 13.5122 192.837 13.5115 192.837 13.5115C192.902 32.0958 192.837 63.0904 192.837 81.6747C192.837 90.9365 197.695 95.4161 207.673 95.4161C229.007 95.4161 250.342 95.4161 271.677 95.4161C278.044 95.4161 286.507 95.4161 286.507 95.4161C286.31 96.7479 280.276 106.736 279.554 107.947C257.957 144.631 236.294 181.315 214.697 218C211.086 224.174 209.622 227.201 209.622 227.201C185.793 227.201 134.6 227.313 110.771 227.313C110.771 227.313 114.128 221.571 118.264 214.549C138.351 180.407 158.242 146.205 178.723 112.305C184.369 102.922 179.642 97.1717 169.073 97.5349C152.596 98.1402 136.054 97.7165 119.511 97.7165C109.139 97.7165 104.216 102.317 104.216 111.821C104.216 168.24 104.216 224.598 104.282 281.017C104.282 286.041 104.282 294.524 104.282 294.524C104.282 294.524 93.7127 294.455 91.5464 294.455C69.7522 294.577 35.2229 294.516 13.4287 294.516C13.4287 294.516 13.4288 289.673 13.4288 282.712C13.4288 253.473 13.4288 224.235 13.4288 194.996Z" fill="white"/>
<path d="M661.941 294.609H602.863V95.7202H661.941V294.609Z" fill="white"/>
<path d="M1005.43 151.123L1042.49 95.7202H1107.78L1040.49 195.161L1107.78 294.609H1042.49L1005.43 239.206L968.359 294.609H902.783L970.07 195.161L902.783 95.7202H968.359L1005.43 151.123Z" fill="white"/>
<path fill-rule="evenodd" clip-rule="evenodd" d="M507.84 95.7202C606.47 96.0066 608.18 241.087 507.84 239.67H404.018V294.465H344.724V95.7202H507.84ZM404.018 189.701H507.84C528.077 189.698 528.361 145.692 507.27 145.689H404.018V189.701Z" fill="white"/>
<path d="M882.371 154.516H850.957C829.301 154.517 811.74 171.996 811.74 193.559V224.546H780.608C758.953 224.548 741.404 242.034 741.404 263.595V294.465H682.359V235.675H713.478C735.133 235.674 752.694 218.187 752.695 196.626V165.763H784.109C805.765 165.763 823.326 148.276 823.326 126.714V95.7202H882.371V154.516Z" fill="white"/>
<path d="M882.384 294.465H823.333V237.937C823.334 237.334 823.58 236.755 824.008 236.329C824.436 235.903 825.016 235.663 825.621 235.662H882.384V294.465Z" fill="white"/>
<path d="M1284.93 145.689H1187.47V170.111H1252.4V220.08H1187.92V244.496H1288.36V294.465H1128.57V95.7202H1284.93V145.689Z" fill="white"/>
<path d="M1431.23 195.096V95.7202H1490.57V294.465H1431.23L1365.05 195.096V294.465H1305.71V95.7202H1365.05L1431.23 195.096Z" fill="white"/>
<path d="M741.398 152.241C741.396 152.843 741.156 153.424 740.729 153.849C740.301 154.274 739.72 154.515 739.116 154.516H682.353V95.7202H741.398V152.241Z" fill="white"/>
</svg>
