<svg width="96" height="96" viewBox="0 0 96 96" fill="none" xmlns="http://www.w3.org/2000/svg">
<mask id="mask0_27_151" style="mask-type:luminance" maskUnits="userSpaceOnUse" x="0" y="0" width="96" height="96">
<path d="M0 7.62939e-06H96V96H0V7.62939e-06Z" fill="white"/>
</mask>
<g mask="url(#mask0_27_151)">
<path d="M64.5965 41.6035C63.4808 39.5026 62.038 37.5295 60.2684 35.7599C50.6917 26.1832 35.1646 26.1832 25.5878 35.7599L10.0068 51.341C0.430031 60.9177 0.430031 76.4446 10.0068 86.0215C19.5835 95.5983 35.1106 95.5983 44.6872 86.0215L60.2684 70.4405C62.0639 68.6448 63.5228 66.6399 64.6452 64.5044" stroke="#BD8600" stroke-width="2" stroke-miterlimit="10"/>
<path d="M41.5987 64.5998L32.4027 73.7958C29.594 76.6045 25.0402 76.6045 22.2314 73.7958C19.4229 70.987 19.4229 66.4332 22.2314 63.6247L37.8715 47.9847C40.6801 45.1758 45.2339 45.1758 48.0427 47.9847" stroke="#BD8600" stroke-width="2" stroke-miterlimit="10"/>
<path d="M31.4277 54.4299C32.5434 56.5308 33.9862 58.5039 35.7558 60.2735C45.3325 69.8502 60.8596 69.8502 70.4364 60.2735L86.0176 44.6922C95.5942 35.1155 95.5942 19.5886 86.0176 10.0119C76.4407 0.434932 60.9138 0.434932 51.337 10.0119L35.7558 25.5929C33.9965 27.3522 32.5604 29.3124 31.4474 31.3996" stroke="#BD8600" stroke-width="2" stroke-miterlimit="10"/>
<path d="M54.424 31.4324L63.6199 22.2365C66.4285 19.4279 70.9825 19.4279 73.7912 22.2365C76.5998 25.0454 76.5998 29.599 73.7912 32.4078L58.1513 48.0477C55.3423 50.8565 50.8515 50.7935 48.043 47.9847" stroke="#BD8600" stroke-width="2" stroke-miterlimit="10"/>
</g>
</svg>
