<svg width="96" height="96" viewBox="0 0 96 96" fill="none" xmlns="http://www.w3.org/2000/svg">
<mask id="mask0_27_353" style="mask-type:luminance" maskUnits="userSpaceOnUse" x="0" y="0" width="96" height="96">
<path d="M0 7.62939e-06H96V96H0V7.62939e-06Z" fill="white"/>
</mask>
<g mask="url(#mask0_27_353)">
<path d="M93.1875 62.6973C93.1875 78.2821 80.5536 90.916 64.9687 90.916C49.3839 90.916 36.75 78.2821 36.75 62.6973C36.75 47.1125 49.3839 34.4785 64.9687 34.4785C80.5536 34.4785 93.1875 47.1125 93.1875 62.6973Z" stroke="#BD8600" stroke-width="2" stroke-miterlimit="10"/>
<path d="M59.25 62.6973C59.25 78.2821 46.6161 90.916 31.0312 90.916C15.4464 90.916 2.8125 78.2821 2.8125 62.6973C2.8125 47.1125 15.4464 34.4785 31.0312 34.4785C46.6161 34.4785 59.25 47.1125 59.25 62.6973Z" stroke="#BD8600" stroke-width="2" stroke-miterlimit="10"/>
<path d="M76.2187 33.3018C76.2187 48.8866 63.5848 61.5205 48 61.5205C32.4152 61.5205 19.7812 48.8866 19.7812 33.3018C19.7812 17.7169 32.4152 5.08301 48 5.08301C63.5848 5.08301 76.2187 17.7169 76.2187 33.3018Z" stroke="#BD8600" stroke-width="2" stroke-miterlimit="10"/>
</g>
</svg>
