<svg width="96" height="96" viewBox="0 0 96 96" fill="none" xmlns="http://www.w3.org/2000/svg">
<path d="M49.434 92.2275C48.9578 92.2425 48.4798 92.25 48 92.25C23.1472 92.25 3.75 72.8528 3.75 48C3.75 23.1472 23.1472 3.75 48 3.75C72.8528 3.75 92.25 22.3972 92.25 47.25C92.25 47.8374 92.2388 48.4221 92.2164 49.0039" stroke="#BD8600" stroke-width="2" stroke-miterlimit="10" stroke-linecap="round" stroke-linejoin="round"/>
<path d="M74.271 76.9192L70.9083 89.4732C70.7437 90.0879 70.4203 90.6689 69.938 91.1512C68.4737 92.6156 66.0992 92.6156 64.6348 91.1512C64.2092 90.7256 63.9073 90.2231 63.729 89.6885L53.1223 57.8686C52.6873 56.5636 52.9892 55.067 54.0281 54.0281C55.0668 52.9893 56.5637 52.6872 57.8687 53.1222L89.6885 63.7289C90.2233 63.9072 90.7256 64.2091 91.1512 64.6347C92.6156 66.0991 92.6156 68.4736 91.1512 69.938C90.669 70.4202 90.0879 70.7437 89.4733 70.9083L76.9192 74.2709C76.3046 74.4356 75.7235 74.759 75.2413 75.2412C74.759 75.7235 74.4356 76.3046 74.271 76.9192Z" stroke="#BD8600" stroke-width="2" stroke-miterlimit="10" stroke-linecap="round" stroke-linejoin="round"/>
<path d="M75.2422 75.2422L91.1521 91.1521" stroke="#BD8600" stroke-width="2" stroke-miterlimit="10" stroke-linecap="round" stroke-linejoin="round"/>
<path d="M18 48H41.358" stroke="#BD8600" stroke-width="2" stroke-miterlimit="10" stroke-linecap="round" stroke-linejoin="round"/>
<path d="M56.8848 19.3428C59.2679 25.0758 61.4577 32.0031 62.4462 39.6063" stroke="#BD8600" stroke-width="2" stroke-miterlimit="10" stroke-linecap="round" stroke-linejoin="round"/>
<path d="M39.1147 76.6567C35.8792 68.8733 33 58.8882 33 47.9997C33 37.1112 35.8792 27.1261 39.1147 19.3428" stroke="#BD8600" stroke-width="2" stroke-miterlimit="10" stroke-linecap="round" stroke-linejoin="round"/>
</svg>
